HIERARCHY
ROOT hip
{
  OFFSET 0 0 0
  CHANNELS 6 Xposition Yposition Zposition Zrotation Yrotation Xrotation
  JOINT abdomen
  {
    OFFSET 0 20.6881 -0.73152
    CHANNELS 3 Zrotation Xrotation Yrotation
    JOINT chest
    {
      OFFSET 0 11.7043 -0.48768
      CHANNELS 3 Zrotation Xrotation Yrotation
      JOINT neck
      {
        OFFSET 0 22.1894 -2.19456
        CHANNELS 3 Zrotation Xrotation Yrotation
        JOINT head
        {
          OFFSET -0.24384 7.07133 1.2192
          CHANNELS 3 Zrotation Xrotation Yrotation
          JOINT leftEye
          {
            OFFSET 4.14528 8.04674 8.04672
            CHANNELS 3 Zrotation Xrotation Yrotation
            End Site
            {
              OFFSET 1 0 0
            }
          }
          JOINT rightEye
          {
            OFFSET -3.6576 8.04674 8.04672
            CHANNELS 3 Zrotation Xrotation Yrotation
            End Site
            {
              OFFSET 1 0 0
            }
          }
        }
      }
      JOINT rCollar
      {
        OFFSET -2.68224 19.2634 -4.8768
        CHANNELS 3 Zrotation Xrotation Yrotation
        JOINT rShldr
        {
          OFFSET -8.77824 -1.95073 1.46304
          CHANNELS 3 Zrotation Xrotation Yrotation
          JOINT rForeArm
          {
            OFFSET -28.1742 -1.7115 0.48768
            CHANNELS 3 Zrotation Xrotation Yrotation
            JOINT rHand
            {
              OFFSET -22.5879 0.773209 7.07136
              CHANNELS 3 Zrotation Xrotation Yrotation
              JOINT rThumb1
              {
                OFFSET -1.2192 -0.487915 3.41376
                CHANNELS 3 Zrotation Xrotation Yrotation
                JOINT rThumb2
                {
                  OFFSET -3.37035 -0.52449 3.41376
                  CHANNELS 3 Zrotation Xrotation Yrotation
                  End Site
                  {
                    OFFSET -1.78271 -1.18214 1.43049
                  }
                }
              }
              JOINT rIndex1
              {
                OFFSET -7.75947 0.938293 5.60832
                CHANNELS 3 Zrotation Xrotation Yrotation
                JOINT rIndex2
                {
                  OFFSET -2.54057 -0.884171 1.56538
                  CHANNELS 3 Zrotation Xrotation Yrotation
                  End Site
                  {
                    OFFSET -1.62519 -0.234802 1.16502
                  }
                }
              }
              JOINT rMid1
              {
                OFFSET -8.24714 1.18213 3.41376
                CHANNELS 3 Zrotation Xrotation Yrotation
                JOINT rMid2
                {
                  OFFSET -3.10165 -0.590103 1.0647
                  CHANNELS 3 Zrotation Xrotation Yrotation
                  End Site
                  {
                    OFFSET -2.48547 -0.328903 0.83742
                  }
                }
              }
              JOINT rRing1
              {
                OFFSET -8.82822 0.546677 1.51678
                CHANNELS 3 Zrotation Xrotation Yrotation
                JOINT rRing2
                {
                  OFFSET -2.60934 -0.819778 -0.0198488
                  CHANNELS 3 Zrotation Xrotation Yrotation
                  End Site
                  {
                    OFFSET -2.33842 -0.294052 0.168128
                  }
                }
              }
              JOINT rPinky1
              {
                OFFSET -8.27202 -0.0477905 -0.4584
                CHANNELS 3 Zrotation Xrotation Yrotation
                JOINT rPinky2
                {
                  OFFSET -1.82734 -0.647385 -0.700984
                  CHANNELS 3 Zrotation Xrotation Yrotation
                  End Site
                  {
                    OFFSET -1.69225 -0.51767 -0.607171
                  }
                }
              }
            }
          }
        }
      }
      JOINT lCollar
      {
        OFFSET 2.68224 19.2634 -4.8768
        CHANNELS 3 Zrotation Xrotation Yrotation
        JOINT lShldr
        {
          OFFSET 8.77824 -1.95073 1.46304
          CHANNELS 3 Zrotation Xrotation Yrotation
          JOINT lForeArm
          {
            OFFSET 28.1742 -1.7115 0.48768
            CHANNELS 3 Zrotation Xrotation Yrotation
            JOINT lHand
            {
              OFFSET 22.5879 0.773209 7.07136
              CHANNELS 3 Zrotation Xrotation Yrotation
              JOINT lThumb1
              {
                OFFSET 1.2192 -0.487915 3.41376
                CHANNELS 3 Zrotation Xrotation Yrotation
                JOINT lThumb2
                {
                  OFFSET 3.37035 -0.52449 3.41376
                  CHANNELS 3 Zrotation Xrotation Yrotation
                  End Site
                  {
                    OFFSET 1.78271 -1.18214 1.43049
                  }
                }
              }
              JOINT lIndex1
              {
                OFFSET 7.75947 0.938293 5.60832
                CHANNELS 3 Zrotation Xrotation Yrotation
                JOINT lIndex2
                {
                  OFFSET 2.54057 -0.884171 1.56538
                  CHANNELS 3 Zrotation Xrotation Yrotation
                  End Site
                  {
                    OFFSET 1.62519 -0.234802 1.16502
                  }
                }
              }
              JOINT lMid1
              {
                OFFSET 8.24714 1.18213 3.41376
                CHANNELS 3 Zrotation Xrotation Yrotation
                JOINT lMid2
                {
                  OFFSET 3.10165 -0.590103 1.0647
                  CHANNELS 3 Zrotation Xrotation Yrotation
                  End Site
                  {
                    OFFSET 2.48547 -0.328903 0.83742
                  }
                }
              }
              JOINT lRing1
              {
                OFFSET 8.82822 0.546677 1.51678
                CHANNELS 3 Zrotation Xrotation Yrotation
                JOINT lRing2
                {
                  OFFSET 2.60934 -0.819778 -0.0198488
                  CHANNELS 3 Zrotation Xrotation Yrotation
                  End Site
                  {
                    OFFSET 2.33842 -0.294052 0.168128
                  }
                }
              }
              JOINT lPinky1
              {
                OFFSET 8.27202 -0.0477905 -0.4584
                CHANNELS 3 Zrotation Xrotation Yrotation
                JOINT lPinky2
                {
                  OFFSET 1.82734 -0.647385 -0.700984
                  CHANNELS 3 Zrotation Xrotation Yrotation
                  End Site
                  {
                    OFFSET 1.69225 -0.51767 -0.607171
                  }
                }
              }
            }
          }
        }
      }
    }
  }
  JOINT rButtock
  {
    OFFSET -8.77824 4.35084 1.2192
    CHANNELS 3 Zrotation Xrotation Yrotation
    JOINT rThigh
    {
      OFFSET 0 -1.70687 -2.19456
      CHANNELS 3 Zrotation Xrotation Yrotation
      JOINT rShin
      {
        OFFSET 0 -36.8199 0.73152
        CHANNELS 3 Zrotation Xrotation Yrotation
        JOINT rFoot
        {
          OFFSET 0.73152 -45.1104 -5.12064
          CHANNELS 3 Zrotation Xrotation Yrotation
          End Site
          {
            OFFSET -1.1221 -3.69964 12.103
          }
        }
      }
    }
  }
  JOINT lButtock
  {
    OFFSET 8.77824 4.35084 1.2192
    CHANNELS 3 Zrotation Xrotation Yrotation
    JOINT lThigh
    {
      OFFSET 0 -1.70687 -2.19456
      CHANNELS 3 Zrotation Xrotation Yrotation
      JOINT lShin
      {
        OFFSET 0 -36.8199 0.73152
        CHANNELS 3 Zrotation Xrotation Yrotation
        JOINT lFoot
        {
          OFFSET -0.73152 -45.1104 -5.12064
          CHANNELS 3 Zrotation Xrotation Yrotation
          End Site
          {
            OFFSET 1.1221 -3.69964 12.103
          }
        }
      }
    }
  }
}
MOTION
Frames:	5
Frame Time:	0.03333
0.0 0.0 0.0 0.0 0.0 0.0 0.0 0.0 0.0 0.0 0.0 0.0 0.0 0.0 0.0 0.0 0.0 0.0 0.0 0.0 0.0 0.0 0.0 0.0 0.0 0.0 0.0 0.0 0.0 0.0 0.0 0.0 0.0 0.0 0.0 0.0 0.0 0.0 0.0 0.0 0.0 0.0 0.0 0.0 0.0 0.0 0.0 0.0 0.0 0.0 0.0 0.0 0.0 0.0 0.0 0.0 0.0 0.0 0.0 0.0 0.0 0.0 0.0 0.0 0.0 0.0 0.0 0.0 0.0 0.0 0.0 0.0 0.0 0.0 0.0 0.0 0.0 0.0 0.0 0.0 0.0 0.0 0.0 0.0 0.0 0.0 0.0 0.0 0.0 0.0 0.0 0.0 0.0 0.0 0.0 0.0 0.0 0.0 0.0 0.0 0.0 0.0 0.0 0.0 0.0 0.0 0.0 0.0 0.0 0.0 0.0 0.0 0.0 0.0 0.0 0.0 0.0 0.0 0.0 0.0 0.0 0.0 0.0 0.0 0.0 0.0 0.0 0.0 0.0 0.0 0.0 0.0
-0.247 58.345800000000004 -0.0655 10.322379 -68.639756 -5.649045 -11.107471 10.833875 1.653342 5.446178 -8.679015 -0.807085 6.95073 28.912029 114.355903 -34.451297 21.82245 -134.750739 0.00228 -0.0 -0.002513 0.002302 -0.0 -0.002042 -14.14797 43.061601 15.99645 -132.880001 -0.448018 139.448599 65.712837 -31.941899 -81.671092 -173.49725 26.432979 142.588477 175.879497 -21.257254 88.492465 -93.174474 17.74292 36.011455 159.641956 -69.973423 102.396772 -84.678655 54.137759 70.618946 -8.416608 20.880179 5.64675 -7.239242 26.206183 6.044502 -71.54238 -72.139077 -88.497064 -68.760761 -82.413308 -94.752392 -1.15005 -2.914462 -1.064829 -9.088031 -24.66456 -10.500285 142.97339 39.431622 -147.390131 150.390318 45.913438 -97.219522 -122.362797 -15.82373 38.001947 97.406251 64.411329 -75.099517 -8.271465 -8.262785 0.682164 88.207045 25.994948 -78.570996 157.327655 -28.217142 -122.491481 166.803366 -28.772216 -118.783875 167.3735 -28.008494 -145.270602 163.434044 -4.984939 -143.001929 0.000166 -0.018583 0.005351 156.139414 -14.392916 -173.559692 126.797204 -26.618177 124.510954 126.044134 -29.782206 124.419533 -0.004464 0.000409 -0.002232 -44.739759 -59.770262 -48.914882 -9.348857 77.761663 128.669368 -164.985185 23.007917 111.94308 -179.988143 75.749233 -0.010462 -143.943815 72.106286 142.582252 19.726048 -57.270804 44.373202 -26.202959 34.735967 -162.324391
-0.35569999999999996 58.20269999999999 -0.09129999999999999 10.031323 -68.513171 -5.422875 -8.726497 8.081533 -95.71968 5.53364 3.777017 95.606275 3.882728 33.51487 146.597222 -24.321752 38.094946 -165.030734 0.001049 0.0 0.002582 0.000595 -0.0 -0.002646 -156.094095 -7.551037 162.675685 -31.425651 26.13346 0.971274 -1.075139 -41.076465 -121.535318 169.207236 -24.784158 142.449306 -93.743232 37.963338 53.548781 -124.309976 -16.310227 75.354141 -155.191828 -24.300216 122.143438 145.586838 -67.269422 86.771409 -36.910879 52.190691 30.650632 -4.827998 21.329534 4.521822 -71.92435 72.972539 89.772689 -66.711751 -82.372825 -83.755573 39.995902 85.641058 -0.908166 -168.913221 69.448842 -146.224189 -4.224704 -44.097144 8.516288 11.846695 -56.037939 78.824597 0.243157 -49.071845 140.477951 174.210233 -2.601764 -142.664149 169.57272 -7.25358 -89.929808 149.36045 4.409761 -76.576725 -12.215201 -21.785012 5.121629 161.5771 -17.476379 -110.68494 0.058971 0.167617 -0.032518 172.068236 -31.345299 -144.107051 78.572121 -72.043074 95.867197 85.963085 83.130327 -103.859411 87.573789 -50.205665 85.929823 147.05733 13.615605 143.085429 179.98425 75.751044 0.010776 157.662375 6.749747 74.037356 79.348009 12.245759 36.062182 49.466181 78.982577 -132.514449 -0.0 -0.000214 -0.001122 10.68617 -0.355012 -180.0 1.392668 -48.259392 -154.547547 84.166124 -2.540226 7.564596
-0.45519999999999994 58.0979 -0.10610000000000001 9.736325 -68.418148 -5.197948 -8.81981 8.034021 -95.341324 5.523993 3.750164 95.283719 -14.243045 30.311622 -100.987845 38.488376 20.958612 70.073707 -0.00084 0.0 -0.000127 -0.00084 0.0 -0.000127 -143.620331 38.233265 148.080307 97.644108 -58.075443 116.124075 121.929515 42.703673 105.643957 -176.082594 19.55968 143.565339 -169.291743 -6.97169 89.920698 -164.928293 -4.729959 85.815159 -46.208115 39.653084 36.31829 4.115794 3.972443 -1.901642 -39.290948 53.365469 32.878323 -42.04853 58.498843 36.281189 -0.014963 -1.323273 -0.41508 -148.096617 -76.783356 -171.073014 0.508607 1.338369 0.467783 -137.836568 -13.864616 -135.514928 155.474681 -3.322086 -161.79794 142.925836 -86.934518 93.5055 115.698388 -2.62079 10.229275 -116.839416 -79.593555 -97.527599 6.580732 6.3451 -1.365075 -16.439945 -20.458478 7.164297 -129.218994 -75.529731 -76.345666 82.551927 53.628554 -69.062027 160.826197 -7.141933 -143.31588 -143.610254 -74.417568 -111.813557 145.107176 3.761963 -179.689639 154.462929 -12.53993 177.515276 -10.275557 33.656593 -8.861822 -0.804516 -2.837968 1.087078 -179.999219 75.749044 -0.0 158.545867 7.500584 2.493699 28.901334 78.265869 100.437797 -146.265381 -13.199506 135.04366 -0.007137 -0.00059 -0.003569 9.716361 0.939605 90.183439 46.065905 3.10975 -93.852042 34.529205 -6.37279 40.152383
-0.5286 58.0099 -0.1207 9.792889 -68.419575 -5.303174 -13.764953 8.416769 85.550547 -5.557672 -8.495132 -85.305238 6.270868 30.277789 123.68598 -32.659827 26.775864 -143.05029 0.00164 0.0 0.000748 0.00164 0.0 0.000748 -155.417478 -2.951471 161.718379 154.293863 -13.532185 176.183019 150.620732 28.613521 74.026048 179.959246 7.555318 144.392817 -169.319898 -7.000785 89.921816 13.935698 -59.142004 16.071979 5.922824 -10.174197 -2.968464 -5.780983 23.251599 6.615382 -175.765525 -50.334718 144.097916 -42.544203 58.30014 36.493837 -145.099322 -1.522549 -178.650902 12.063683 30.057325 -5.588173 -43.363007 -47.547125 -42.161265 45.249697 82.272467 -7.324436 80.165883 68.37244 -83.260769 -74.498607 -20.354034 -83.752017 81.82512 -30.875858 -67.009647 -53.934066 -79.040067 -37.117608 10.482292 9.91015 -2.493168 -13.392231 -14.316163 2.667095 166.820913 -43.973744 -122.062832 154.727066 -7.402247 -118.915775 158.521849 -0.192209 -142.14493 -3.457022 -0.614415 -0.276828 145.09962 -1.522728 178.651262 -12.050475 29.596311 5.638526 7.143161 -15.707805 6.727134 2.545076 -13.091539 4.727381 -179.999796 75.749308 -0.000211 157.483843 6.897394 58.460393 75.930739 26.382453 17.709951 -10.327294 7.367947 -84.906681 179.992611 75.749308 0.005695 -141.994956 72.099355 140.607846 19.629561 -57.418981 44.200262 159.81231 -0.81673 153.394666
